# xmcd CD database file
#
# Track frame offsets:
#	150
#	11962
#	24490
#	39067
#	53129
#	66756
#	82050
#	96181
#	110343
#	123478
#	135635
#	150883
#	163217
#	176622
#	188426
#	203778
#	218834
#	231643
#	247469
#	262232
#	274747
#	287577
#	301327
#	314605
#	325917
#
# Disc length: 4507 seconds
#
# Revision: 0
# Processed by: cddbd v1.5.2PL0 Copyright (c) Steve Scherf et al.
# Submitted via: CDex 1.51
#
DISCID=70119919
DTITLE=Waters, Muddy - 2005 - They Call Me Muddy Waters [CD1 - In The Studio)
DYEAR=2005
DGENRE=Blues
TTITLE0=Gypsy Woman
TTITLE1=I Can't Be Satisfied
TTITLE2=I Feel Like Going Home
TTITLE3=Screamin' and Cryin'
TTITLE4=Rollin' and Tumblin'
TTITLE5=Rollin' Stone
TTITLE6=You're Gonna Need My Help I Said
TTITLE7=Early Mornin' Blues
TTITLE8=Louisiana Blues
TTITLE9=Long Distance Call
TTITLE10=Honey Bee
TTITLE11=Howlin' Wolf
TTITLE12=She Moves Me
TTITLE13=Still A Fool
TTITLE14=They Call Me Muddy Waters
TTITLE15=All Night Long
TTITLE16=Stuff You Gotta Watch
TTITLE17=Iodine In My Coffee
TTITLE18=Baby Please Don't Go
TTITLE19=(I'm Your) Hoochie Coochie Man
TTITLE20=I Just Wanna Make Love To You
TTITLE21=I'm Ready
TTITLE22=Mannish Boy
TTITLE23=Sugar Sweet
TTITLE24=Trouble No More
EXTD=YEAR: 2005
EXTT0=
EXTT1=
EXTT2=
EXTT3=
EXTT4=
EXTT5=
EXTT6=
EXTT7=
EXTT8=
EXTT9=
EXTT10=
EXTT11=
EXTT12=
EXTT13=
EXTT14=
EXTT15=
EXTT16=
EXTT17=
EXTT18=
EXTT19=
EXTT20=
EXTT21=
EXTT22=
EXTT23=
EXTT24=
PLAYORDER=
